<svg xmlns="http://www.w3.org/2000/svg" viewBox="0 0 48 48" width="24px" height="24px">
  <path fill="#4285F4" d="M23.49 12.27c1.69 0 3.2.58 4.39 1.72l3.27-3.27C29.24 8.51 26.6 7.27 23.49 7.27 17.87 7.27 13.05 11.15 11.2 16.27l3.89 3.02c.92-3.45 4.07-7.02 8.4-7.02z"></path>
  <path fill="#34A853" d="M46.49 24.27c0-1.49-.13-2.93-.36-4.27H23.49v8.09h12.89c-.57 2.95-2.24 5.45-4.73 7.12l3.7 2.88c3.43-3.16 5.14-7.85 5.14-13.82z"></path>
  <path fill="#FBBC05" d="M11.09 28.29c-.5-1.49-.77-3.08-.77-4.74s.27-3.25.77-4.74l-3.89-3.02C6.47 18.71 5.99 21.43 5.99 24.27s.48 5.56 1.21 8.48l3.89-3.02z"></path>
  <path fill="#EA4335" d="M23.49 41.27c3.11 0 5.74-1.02 7.66-2.79l-3.7-2.88c-1.02.7-2.33 1.1-3.96 1.1-4.33 0-7.48-3.57-8.4-7.02l-3.89 3.02c1.85 5.12 6.67 8.9 12.29 8.9z"></path>
</svg>
