<svg xmlns="http://www.w3.org/2000/svg" viewBox="0 0 48 48">
  <path fill="#EA4335" d="M24 9.5c3.54 0 6.64 1.22 9.12 3.6l6.78-6.78C35.66 2.42 30.14 0 24 0 14.64 0 6.55 5.22 2.56 12.78l7.9 6.14C12.3 12.56 17.62 9.5 24 9.5z"></path>
  <path fill="#34A853" d="M46.13 24.5c0-1.58-.14-3.11-.4-4.5H24v9h12.56c-.54 2.8-2.17 5.18-4.56 6.8l7.02 5.45C43.61 37.6 46.13 31.6 46.13 24.5z"></path>
  <path fill="#4A90E2" d="M9.46 28.92A14.47 14.47 0 0 1 9 24c0-1.7.29-3.34.8-4.92l-7.9-6.14A23.944 23.944 0 0 0 0 24c0 3.8.88 7.4 2.44 10.6l7.02-5.68z"></path>
  <path fill="#FBBC05" d="M24 48c6.14 0 11.3-2.02 15.06-5.48l-7.02-5.45c-2.07 1.4-4.7 2.23-8.04 2.23-6.38 0-11.7-3.98-13.6-9.5l-7.9 6.14C6.55 42.78 14.64 48 24 48z"></path>
</svg>
